<?xml version="1.0" encoding="utf-8"?>
<svg version="1.1" id="Layer_1" xmlns="http://www.w3.org/2000/svg" xmlns:xlink="http://www.w3.org/1999/xlink" x="0px" y="0px" viewBox="0 0 512 512" style="enable-background:new 0 0 512 512;" xml:space="preserve">
	<style type="text/css">
		.st0 {
			fill: #212121;
		}
		.st1 {
			fill: #FFFFFF;
		}
	</style>
	<g id="Layer_2_1_">
		<rect class="st0" width="512" height="512"/>
	</g>
	<g id="Layer_1_1_">
		<g>
			<path
				class="st1"
				d="M172.5,179.8h47.4v185.9c0,14.9-3.7,26.4-11.2,34.2c-7.5,7.9-19.5,11.8-36.2,11.8h-25V375h25L172.5,179.8
			L172.5,179.8z M196.2,161.9c-9.6,0-16.6-2.2-21-6.6c-4.4-4.4-6.6-10-6.6-16.8v-7c0-6.8,2.2-12.4,6.6-16.8c4.4-4.4,11.4-6.6,21-6.6
			c9.6,0,16.6,2.2,21,6.6c4.4,4.4,6.6,10,6.6,16.8v7c0,6.8-2.2,12.4-6.6,16.8C212.7,159.7,205.8,161.9,196.2,161.9z"/>
			<path class="st1" d="M322.9,347.8c-16.4,0-28.9-4.2-37.3-12.5S273,314.9,273,298.9v-82.2h-23.7v-36.8h11.8
			c6.4,0,10.8-1.5,13.1-4.6c2.3-3.1,3.5-7.5,3.5-13.3v-27.5h42.6v45.4h33.3v36.8h-33.3V311H351v36.8H322.9z"/>
		</g>
	</g>
</svg>
